<svg version="1.1" id="Layer_1" xmlns="http://www.w3.org/2000/svg" xmlns:xlink="http://www.w3.org/1999/xlink" x="0px" y="0px"
	 width="100%" viewBox="0 0 368 288" enable-background="new 0 0 368 288" xml:space="preserve">
<path fill="#000000" opacity="1.000000" stroke="none" 
	d="
M238.647491,273.688904 
	C245.306793,272.505585 251.499008,271.386902 257.321777,268.689392 
	C270.239563,262.705017 277.117310,252.243347 279.534760,238.659058 
	C281.734619,226.297455 281.729431,213.935791 278.919830,201.562698 
	C275.193024,185.150269 261.741058,172.021500 245.104172,169.455978 
	C237.383911,168.265457 229.622772,167.298492 221.766632,167.331100 
	C217.912384,167.347107 216.584473,168.350098 218.252899,172.371918 
	C226.351273,191.893463 234.327087,211.466599 242.201996,231.079407 
	C243.648300,234.681458 245.717911,236.261566 249.699615,236.078552 
	C255.851425,235.795792 262.026764,235.956573 268.190521,236.043152 
	C270.069092,236.069519 272.270538,235.459076 273.528473,237.698883 
	C270.545593,239.727173 188.828857,240.175293 183.625504,237.448715 
	C192.324966,235.019501 201.444519,236.723160 210.809769,235.670609 
	C210.358902,230.767319 207.978195,226.715179 206.307373,222.532990 
	C199.636398,205.835175 192.675110,189.253555 185.914642,172.591034 
	C184.885376,170.054230 183.813690,168.442230 180.602203,168.476944 
	C156.948807,168.732635 133.293060,168.915802 109.638985,168.838516 
	C105.135132,168.823807 102.880775,170.166504 101.191132,174.499481 
	C93.815086,193.414856 86.015144,212.164825 78.402863,230.988480 
	C77.923531,232.173782 77.077042,233.365768 77.943375,235.230103 
	C84.639694,237.498398 92.335396,234.323441 99.738129,237.242172 
	C96.142654,239.958221 56.426228,240.101501 52.789162,237.859573 
	C52.862434,236.554871 53.836670,236.241943 54.848698,236.160614 
	C56.506153,236.027405 58.173988,236.006683 59.838135,235.976059 
	C76.344116,235.672119 71.637733,238.238937 77.704796,223.697037 
	C91.999062,189.435699 105.859955,154.993423 119.871780,120.614403 
	C130.928162,93.486771 141.948502,66.344452 152.983475,39.208103 
	C153.673630,37.510948 154.301682,35.786438 155.050735,34.115967 
	C155.718002,32.627941 156.194305,30.793488 158.340332,30.866293 
	C160.421021,30.936882 160.938766,32.720875 161.562683,34.234016 
	C167.781372,49.315613 173.990875,64.401062 180.167084,79.500099 
	C191.320831,106.767731 202.461838,134.040604 213.569275,161.327103 
	C214.566223,163.776215 216.082809,165.105423 218.830048,164.982101 
	C227.483871,164.593628 236.103333,164.247345 244.339600,160.977432 
	C259.575989,154.928345 267.129059,143.493134 268.802551,127.495300 
	C269.643341,119.457848 269.126587,111.547569 267.772705,103.668274 
	C265.327026,89.435013 256.755676,80.510048 243.166992,76.322929 
	C235.325272,73.906647 227.230011,73.014206 219.006775,73.116158 
	C210.677200,73.219421 202.344604,73.162849 194.014496,73.070190 
	C192.352951,73.051704 190.306488,73.767761 189.047760,71.400482 
	C190.995010,70.057388 193.177917,70.129982 195.228531,70.122139 
	C216.024963,70.042648 236.847076,69.331230 257.418579,73.616524 
	C265.305878,75.259552 272.918823,77.542839 279.967438,81.428108 
	C296.193634,90.372124 302.748260,104.801544 301.929382,122.625282 
	C301.113373,140.386780 290.678955,151.428009 275.023987,158.442337 
	C267.206757,161.944931 258.823059,163.303162 250.619232,165.996765 
	C257.361664,166.599731 263.908691,167.934814 270.362885,169.739761 
	C284.007721,173.555634 296.868958,178.727325 306.321594,190.001770 
	C323.112854,210.029312 319.398376,242.358780 298.666199,258.320496 
	C285.856232,268.182892 271.067627,272.658447 255.482864,275.323700 
	C239.771973,278.010468 223.925537,276.967682 208.123535,277.164246 
	C207.134415,277.176514 206.127426,277.070770 205.159927,276.869781 
	C204.755920,276.785889 204.433563,276.308990 202.909851,275.044952 
	C215.358383,272.984253 226.890457,275.087799 238.647491,273.688904 
M138.168457,83.570190 
	C127.211754,110.608795 116.255051,137.647400 105.075943,165.234833 
	C131.476379,165.234833 156.765747,165.234833 182.833298,165.234833 
	C169.796844,133.696106 157.056351,102.873375 144.315857,72.050644 
	C143.840607,72.157013 143.365372,72.263382 142.890137,72.369759 
	C141.396729,75.860428 139.903336,79.351105 138.168457,83.570190 
z"/>
</svg>